# xmcd
# 
# Track frame offsets:
#     150
#     25689
#     51714
#     77225
#     97274
#     116673
#     141700
#     168764
#     186011
#     210775
#     229497
# 
# Disc length: 3383
# 
# Revision: 1
# Processed by: cddbd v1.5.2PL0 Copyright (c) Steve Scherf et al.
# Submitted via: fre:ac v1.0.31
# 
DISCID=9d0d350b
DTITLE=Kevin Eubanks - The Messenger
DYEAR=2012
DGENRE=Blues
TTITLE0=The Messenger
TTITLE1=Sister Veil
TTITLE2=Resolution
TTITLE3=JB
TTITLE4=420
TTITLE5=Led Boots
TTITLE6=M.I.N.D.
TTITLE7=Queen Of Hearts
TTITLE8=The Gloaming
TTITLE9=Loved Ones
TTITLE10=Ghost Dog Blues
EXTD=
EXTT0=
EXTT1=
EXTT2=
EXTT3=
EXTT4=
EXTT5=
EXTT6=
EXTT7=
EXTT8=
EXTT9=
EXTT10=
PLAYORDER=
